HIERARCHY
ROOT pelvis
{
  OFFSET 0 0 0
  CHANNELS 6 Xposition Yposition Zposition Zrotation Xrotation Yrotation
  JOINT pelvis_right_femur
  {
    OFFSET -11.43119 -3.542788 0.2090856
    CHANNELS 3 Zrotation Xrotation Yrotation
    JOINT right_femur_tibia
    {
      OFFSET -1.028693 -40.73281 5
      CHANNELS 3 Zrotation Xrotation Yrotation
      JOINT right_tibia_foot
      {
        OFFSET -0.5013517 -42.05707 -5
        CHANNELS 3 Zrotation Xrotation Yrotation
        End Site
        {
          OFFSET 0 -5 10
        }
      }
    }
  }
  JOINT pelvis_left_femur
  {
    OFFSET 11.43119 -3.542788 0.2090856
    CHANNELS 3 Zrotation Xrotation Yrotation
    JOINT left_femur_tibia
    {
      OFFSET 1.028693 -40.73281 5
      CHANNELS 3 Zrotation Xrotation Yrotation
      JOINT left_tibia_foot
      {
        OFFSET 0.3200228 -42.98253 -5
        CHANNELS 3 Zrotation Xrotation Yrotation
        End Site
        {
          OFFSET 0 -5 10
        }
      }
    }
  }
  JOINT pelvis_spine1
  {
    OFFSET 0 8.64413 -3.209807
    CHANNELS 3 Zrotation Xrotation Yrotation
    JOINT spine1
    {
      OFFSET 0 29.53957 -1.762685
      CHANNELS 3 Zrotation Xrotation Yrotation
      JOINT spine2
      {
        OFFSET 0 16.36153 -0.1422377
        CHANNELS 3 Zrotation Xrotation Yrotation
        JOINT neck
        {
          OFFSET 0 11.60093 5
          CHANNELS 3 Zrotation Xrotation Yrotation
          End Site
          {
            OFFSET 0 20 0
          }
        }
      }
      JOINT right_manubrium
      {
        OFFSET -4.671311 15.89868 4
        CHANNELS 3 Zrotation Xrotation Yrotation
        JOINT right_clavicle
        {
          OFFSET -13.601 1.573642 -2.74176
          CHANNELS 3 Zrotation Xrotation Yrotation
          JOINT right_humerus
          {
            OFFSET -0.06331682 -27.72702 2.252146
            CHANNELS 3 Zrotation Xrotation Yrotation
            JOINT right_radius
            {
              OFFSET -0.5696302 -23.92083 0.4042105
              CHANNELS 3 Zrotation Xrotation Yrotation
              End Site
              {
                OFFSET 0 -15 0
              }
            }
          }
        }
      }
      JOINT left_manubrium
      {
        OFFSET 4.671311 15.89868 4
        CHANNELS 3 Zrotation Xrotation Yrotation
        JOINT left_clavicle
        {
          OFFSET 13.601 1.573642 -2.74176
          CHANNELS 3 Zrotation Xrotation Yrotation
          JOINT left_humerus
          {
            OFFSET 0.000209614 -29.01858 1.101395
            CHANNELS 3 Zrotation Xrotation Yrotation
            JOINT left_radius
            {
              OFFSET -0.2288314 -24.59216 1.790347
              CHANNELS 3 Zrotation Xrotation Yrotation
              End Site
              {
                OFFSET 0 -15 0
              }
            }
          }
        }
      }
    }
  }
}
MOTION
Frames: 17
Frame Time: 0.0416666666667
0 48.05195 0 -2.419228 -22.87001 -0.9624281 -50.04637 -59.38766 -38.90405 -180 81.46038 -180 10.48609 2.795556 3.553309 61.05221 -49.65325 47.45091 -180 71.8032 -180 -7.276244 -7.558629 -10.88486 -1.32624 19.91986 2.279471 8.861563 15.38405 -9.814897 -9.775932 8.715166 11.30336 7.562259 -27.44731 6.497947 21.64144 -8.691633 26.80442 -57.82364 -33.69258 15.83655 0 -62.96327 0 21.4171 5.325095 37.3441 -26.91722 -27.71404 -3.520558 53.05051 -23.89751 -29.10101 0 -69.5649 0 -11.04723 -7.66931 -15.84463
-0.02217661 48.06544 -0.005602658 -2.396368 -22.75073 -0.9557244 -50.12766 -59.50206 -38.98352 -180 81.4576 -180 10.4824 2.780028 3.504717 61.00747 -49.83657 47.39351 -180 71.82685 -180 -7.29487 -7.546072 -10.75434 -1.139384 19.9474 2.3532 8.419709 15.55002 -9.613049 -9.593247 8.688692 11.16216 7.4982 -27.55392 6.570772 21.75737 -8.777267 26.48108 -57.85905 -33.63169 15.58758 0 -63.5023 0 21.43183 5.380466 37.41405 -27.12175 -28.16657 -2.545002 53.21048 -21.87481 -25.95316 0 -70.73523 0 -8.585545 -10.48867 -13.60145
-0.04328616 48.05241 -0.04097222 -2.36206 -22.63709 -0.911594 -50.24205 -59.63954 -39.0993 -180 81.4495 -180 10.48499 2.757153 3.42077 61.09508 -49.96978 47.51835 -180 71.86963 -180 -7.297543 -7.506528 -10.73189 -0.9888327 20.04467 2.445285 7.779433 15.73001 -9.281823 -9.151801 8.695271 10.91997 7.547426 -27.68923 6.647718 21.96403 -8.899428 25.96828 -57.87028 -33.58852 15.33526 0 -64.17126 0 21.42457 5.377454 37.45091 -27.45557 -29.23507 -1.075465 53.61131 -19.27382 -21.52256 0 -71.65209 0 -5.259627 -13.60012 -10.58701
-0.08053689 48.01953 -0.09116922 -2.330072 -22.50772 -0.7788124 -50.42071 -59.75346 -39.29857 -180 81.43104 -180 10.50045 2.722869 3.305202 61.33529 -50.08413 47.82648 -180 71.93144 -180 -7.285749 -7.460146 -10.82217 -0.8941896 20.23015 2.603254 7.139464 15.85374 -8.910856 -8.543951 8.717042 10.56425 7.6994 -27.8696 6.643057 22.20629 -9.070631 25.32247 -57.93814 -33.50261 15.00148 0 -64.96338 0 21.39339 5.308892 37.45648 -27.67627 -30.85713 0.622097 54.20849 -16.37891 -16.27768 0 -71.5579 0 -1.358464 -16.50541 -6.862167
-0.1250551 48.00166 -0.1347053 -2.320503 -22.33337 -0.5421343 -50.67751 -59.79427 -39.595 -180 81.40908 -180 10.52878 2.669461 3.153398 61.67697 -50.20819 48.26617 -180 72.03847 -180 -7.256399 -7.414549 -11.02426 -0.8896969 20.46552 2.834041 6.685918 15.84171 -8.618092 -7.934239 8.764176 10.15924 7.903561 -28.07723 6.544258 22.41546 -9.213783 24.60114 -58.07108 -33.29581 14.62472 0 -65.88347 0 21.36077 5.160596 37.43942 -27.60063 -33.02785 2.081857 54.97653 -13.66636 -10.71862 0 -69.92505 0 2.550902 -18.73309 -2.670577
-0.168095 48.02573 -0.1558289 -2.34946 -22.10598 -0.2096309 -50.91869 -59.77143 -39.8948 -180 81.40504 -180 10.56188 2.594533 2.979918 62.11254 -50.33686 48.81833 -180 72.16699 -180 -7.207862 -7.361219 -11.33256 -0.9907186 20.69973 3.107261 6.455566 15.71075 -8.450696 -7.431359 8.805492 9.806729 8.102405 -28.27864 6.432876 22.57374 -9.285378 23.89138 -58.25769 -32.9682 14.26078 0 -66.86752 0 21.34316 4.939546 37.39845 -27.19037 -35.51425 3.024137 55.91834 -11.36857 -5.379759 0 -66.62344 0 5.789055 -20.04929 1.669326
-0.1678145 48.06249 -0.1394931 -2.434315 -21.86992 0.1425924 -51.08549 -59.70847 -40.11656 -180 81.39924 -180 10.59537 2.502879 2.79495 62.6708 -50.41864 49.48688 -180 72.25219 -180 -7.152095 -7.326011 -11.7123 -1.147872 20.8797 3.339032 6.398676 15.52542 -8.360094 -7.09986 8.860635 9.586889 8.245818 -28.42791 6.396245 22.70078 -9.314222 23.25597 -58.47745 -32.56459 13.91167 0 -67.79581 0 21.33204 4.673977 37.32209 -26.43806 -38.07262 3.449171 57.09507 -9.60622 -0.6762809 0 -62.16622 0 7.902851 -20.61858 5.735674
-0.1110103 48.07355 -0.08519865 -2.57682 -21.66166 0.432549 -51.14815 -59.64758 -40.21467 -180 81.38207 -180 10.62522 2.404605 2.624462 63.31601 -50.42504 50.21843 -180 72.24081 -180 -7.098518 -7.32398 -12.11679 -1.32127 20.99546 3.459942 6.436186 15.37697 -8.313482 -6.926511 8.917466 9.515907 8.318078 -28.5081 6.473353 22.80341 -9.348128 22.74402 -58.71193 -32.15819 13.58673 0 -68.58782 0 21.32405 4.380067 37.19978 -25.36258 -40.41094 3.489772 58.53782 -8.339689 3.07194 0 -57.10019 0 8.592074 -20.71124 9.189807
0.001246067 48.05679 0.01067621 -2.792163 -21.50575 0.6273793 -51.1102 -59.58588 -40.20776 -180 81.3642 -180 10.65064 2.312583 2.475539 64.02638 -50.37526 50.95918 -180 72.10134 -180 -7.052467 -7.362756 -12.50011 -1.516757 21.03287 3.453244 6.625298 15.27529 -8.306346 -6.841826 8.971957 9.535865 8.339333 -28.5335 6.627858 22.89064 -9.38038 22.34896 -58.91252 -31.79329 13.33407 0 -69.25205 0 21.32068 4.056077 37.03127 -23.8947 -42.43042 3.288403 60.28079 -7.588006 5.810131 0 -51.86165 0 7.964431 -20.48703 11.96085
0.1452475 48.02918 0.103031 -3.079357 -21.37022 0.7545368 -50.92422 -59.51719 -40.09679 -180 81.37395 -180 10.67053 2.242837 2.35472 64.72848 -50.33718 51.63496 -180 71.92609 -180 -7.007489 -7.422052 -12.82585 -1.77088 21.02663 3.368395 6.896768 15.29959 -8.379445 -6.690746 8.956476 9.562834 8.3931 -28.57992 6.825222 22.99916 -9.454444 22.09981 -59.10243 -31.50294 13.09986 0 -69.77505 0 21.30709 3.700245 36.80996 -22.35836 -43.81681 2.919989 61.97523 -7.098673 7.402185 0 -46.7771 0 6.136186 -20.24854 14.07266
0.2881341 48.03495 0.1673797 -3.422482 -21.23256 0.8125421 -50.67871 -59.46067 -39.9975 -180 81.43832 -180 10.69294 2.186812 2.245139 65.3843 -50.35458 52.18785 -180 71.77072 -180 -6.963311 -7.497602 -13.06671 -2.063872 21.01664 3.264501 7.231532 15.34571 -8.516069 -6.459121 8.880828 9.554436 8.497275 -28.67138 7.011118 23.16074 -9.507975 21.98477 -59.22396 -31.24781 12.90475 0 -70.15783 0 21.27412 3.317182 36.5297 -20.98036 -44.77379 2.334574 63.43611 -6.930085 8.121402 0 -42.19743 0 3.550255 -20.09988 15.58559
0.397713 48.052 0.2025727 -3.78807 -21.0806 0.8455454 -50.34766 -59.42733 -39.89486 -180 81.54514 -180 10.71762 2.147457 2.143102 65.98668 -50.46244 52.61122 -180 71.65485 -180 -6.92007 -7.577142 -13.20997 -2.43769 21.03296 3.218437 7.593225 15.35804 -8.666396 -6.120631 8.751757 9.4866 8.673067 -28.82558 7.164958 23.33933 -9.561543 21.91703 -59.32149 -30.98933 12.7002 0 -70.43853 0 21.21594 2.891271 36.1857 -19.74755 -45.53705 1.668312 64.76762 -7.04023 8.310971 0 -38.28851 0 0.594392 -20.17367 16.53366
0.4690834 48.07943 0.2154619 -4.158397 -20.93185 0.8486725 -49.97173 -59.41233 -39.80732 -180 81.67264 -180 10.74297 2.124221 2.052325 66.5185 -50.63378 52.90232 -180 71.56463 -180 -6.885414 -7.666825 -13.24813 -2.83572 21.0798 3.225708 7.913211 15.35631 -8.809228 -5.752876 8.605249 9.373439 8.892467 -29.02671 7.260938 23.52092 -9.608184 21.87543 -59.40576 -30.73999 12.50426 0 -70.65294 0 21.13861 2.415468 35.77912 -18.71841 -46.20144 1.00442 65.94246 -7.327717 8.190214 0 -35.07093 0 -2.312569 -20.4066 17.04024
0.5274128 48.10728 0.2178608 -4.532722 -20.79305 0.786217 -49.58267 -59.41938 -39.74384 -180 81.81251 -180 10.76458 2.115273 1.985844 66.96301 -50.83127 53.0446 -180 71.48738 -180 -6.864849 -7.776962 -13.19595 -3.1949 21.14014 3.242859 8.147146 15.34118 -8.936025 -5.432084 8.473325 9.258526 9.114683 -29.25501 7.324029 23.6632 -9.636494 21.87611 -59.48341 -30.53376 12.37266 0 -70.79055 0 21.05849 1.900721 35.30506 -17.92943 -46.79832 0.3299746 66.87308 -7.738783 7.881854 0 -32.51641 0 -4.988509 -20.71249 17.28164
0.5800873 48.13253 0.2329757 -4.88551 -20.67196 0.6591602 -49.21228 -59.43903 -39.69942 -180 81.94605 -180 10.77675 2.119294 1.95776 67.31232 -51.01802 53.06228 -180 71.39251 -180 -6.860435 -7.904133 -13.06507 -3.486184 21.18532 3.24212 8.268432 15.33533 -9.025716 -5.18172 8.373179 9.16188 9.319799 -29.49108 7.375016 23.78944 -9.638153 21.90155 -59.53905 -30.38796 12.32077 0 -70.85467 0 20.97344 1.347985 34.75629 -17.39272 -47.37737 -0.2812201 67.57027 -8.142633 7.531669 0 -30.45251 0 -7.282734 -21.01734 17.4194
0.6376517 48.15415 0.2642661 -5.211163 -20.5756 0.4554875 -48.86274 -59.47271 -39.67021 -180 82.06402 -180 10.7798 2.131133 1.968615 67.55666 -51.16979 52.96987 -180 71.27018 -180 -6.872593 -8.042441 -12.87946 -3.712977 21.20307 3.210846 8.293905 15.3572 -9.097223 -4.964678 8.297725 9.087478 9.524777 -29.73278 7.438758 23.91669 -9.617473 21.94198 -59.56711 -30.31056 12.34693 0 -70.84519 0 20.8769 0.7617533 34.12211 -17.11913 -47.91545 -0.8375789 68.05616 -8.477064 7.16438 0 -28.78082 0 -9.217758 -21.26708 17.51053
0.6772428 48.17426 0.2972357 -5.485913 -20.49657 0.2105198 -48.55598 -59.5276 -39.65306 -180 82.16169 -180 10.77481 2.146608 2.007204 67.71694 -51.27574 52.79293 -180 71.16525 -180 -6.894077 -8.179326 -12.6694 -3.859879 21.18837 3.169566 8.24162 15.41088 -9.136467 -4.780039 8.265249 9.032965 9.735467 -29.96664 7.507884 24.05409 -9.575266 22.00015 -59.55088 -30.30281 12.44017 0 -70.79183 0 20.75602 0.1329701 33.39547 -17.0498 -48.42589 -1.318598 68.39369 -8.745976 6.803796 0 -27.42701 0 -10.71099 -21.42694 17.61707
